# xmcd
#
# Track frame offsets: 
#        150
#        20947
#        38892
#        53424
#        70661
#        91970
#        94049
#        112603
#        130887
#        148367
#        166643
#        169445
#        187062
#        193236
#        211136
#        213954
#        230229
#
# Disc length: 3327 seconds
#
# Revision: 0
# Processed by: cddbd v1.5.2PL0 Copyright (c) Steve Scherf et al.
# Submitted via: ExactAudioCopy v0.95b4
#
DISCID=f50cfd11
DTITLE=Angie Stone - Stone Love
DYEAR=2004
DGENRE=Soul
TTITLE0=Stoned love
TTITLE1=I wanna thank ya
TTITLE2=My man
TTITLE3=U-haul
TTITLE4=Stay for a while
TTITLE5=Lovers' ghetto
TTITLE6=Little bit of this, little bit of that
TTITLE7=You're gonna get it
TTITLE8=Come home (live with me)
TTITLE9=You don't love me
TTITLE10=Remy red
TTITLE11=That kind of love
TTITLE12=Touch it
TTITLE13=Cinderella ballin'
TTITLE14=Karma
TTITLE15=Wherever you are
TTITLE16=I wanna thank ya
EXTD=
EXTT0=
EXTT1=
EXTT2=
EXTT3=
EXTT4=
EXTT5=
EXTT6=
EXTT7=
EXTT8=
EXTT9=
EXTT10=
EXTT11=
EXTT12=
EXTT13=
EXTT14=
EXTT15=
EXTT16=
PLAYORDER=
